<svg width="103" height="50" viewBox="0 0 103 50" fill="none" xmlns="http://www.w3.org/2000/svg">
<path d="M0.576911 19.0389H5.8268L10.269 31.7694L14.8074 19.0389H19.9611L12.269 38H8.32674L0.576911 19.0389ZM28.8678 38.3846C26.7652 38.3846 25.0153 37.9359 23.6179 37.0385C22.2205 36.1411 21.1884 34.9616 20.5218 33.5001C19.8551 32.0258 19.5218 30.404 19.5218 28.6348C19.5218 26.8913 19.8423 25.2631 20.4833 23.7503C21.1372 22.2375 22.1436 21.0132 23.5025 20.0773C24.8614 19.1286 26.5473 18.6543 28.5601 18.6543C30.4575 18.6543 32.0664 19.0837 33.3869 19.9427C34.7074 20.7888 35.6945 21.9427 36.3484 23.4042C37.015 24.8657 37.3484 26.5131 37.3484 28.3464C37.3484 28.8335 37.3099 29.4233 37.233 30.1156H24.2909C24.3935 31.3463 24.8358 32.3142 25.6178 33.0193C26.3999 33.7116 27.496 34.0578 28.9062 34.0578C30.7139 34.0578 32.201 33.3847 33.3677 32.0386L36.6753 34.9616C35.6368 36.1026 34.4766 36.9616 33.1946 37.5385C31.9126 38.1026 30.4703 38.3846 28.8678 38.3846ZM32.7908 26.5964V26.5195C32.7908 25.8015 32.6177 25.1477 32.2715 24.558C31.9254 23.9683 31.4382 23.5003 30.81 23.1542C30.1818 22.808 29.4639 22.6349 28.6562 22.6349C27.3101 22.6349 26.2653 23.0196 25.5217 23.7888C24.7909 24.558 24.3615 25.4939 24.2332 26.5964H32.7908ZM47.8277 38.3846C45.7252 38.3846 43.9752 37.9359 42.5778 37.0385C41.1804 36.1411 40.1484 34.9616 39.4817 33.5001C38.8151 32.0258 38.4817 30.404 38.4817 28.6348C38.4817 26.8913 38.8022 25.2631 39.4433 23.7503C40.0971 22.2375 41.1035 21.0132 42.4624 20.0773C43.8214 19.1286 45.5072 18.6543 47.52 18.6543C49.4174 18.6543 51.0263 19.0837 52.3468 19.9427C53.6673 20.7888 54.6545 21.9427 55.3083 23.4042C55.9749 24.8657 56.3083 26.5131 56.3083 28.3464C56.3083 28.8335 56.2698 29.4233 56.1929 30.1156H43.2509C43.3534 31.3463 43.7957 32.3142 44.5778 33.0193C45.3598 33.7116 46.4559 34.0578 47.8662 34.0578C49.6738 34.0578 51.161 33.3847 52.3276 32.0386L55.6352 34.9616C54.5968 36.1026 53.4365 36.9616 52.1545 37.5385C50.8725 38.1026 49.4302 38.3846 47.8277 38.3846ZM51.7507 26.5964V26.5195C51.7507 25.8015 51.5776 25.1477 51.2315 24.558C50.8853 23.9683 50.3981 23.5003 49.77 23.1542C49.1418 22.808 48.4238 22.6349 47.6162 22.6349C46.27 22.6349 45.2252 23.0196 44.4816 23.7888C43.7509 24.558 43.3214 25.4939 43.1932 26.5964H51.7507ZM65.8279 38.3846C64.1485 38.3846 62.7703 37.9103 61.6934 36.9616C60.6293 36 60.0973 34.4937 60.0973 32.4424V22.7503H56.6358V19.0389H60.0973V14.6351L64.9433 12.0198V19.0389H69.0586V22.7503H64.9433V31.1155C64.9433 32.2694 65.1036 33.1155 65.4241 33.6539C65.7446 34.1924 66.3151 34.4616 67.1356 34.4616C67.6484 34.4616 68.2894 34.3526 69.0586 34.1347V37.8077C68.0202 38.1923 66.9433 38.3846 65.8279 38.3846Z" fill="black"/>
<path d="M99.0001 34.3803L90.0091 25.266L80.9689 34.3313" stroke="#FB663D" stroke-width="4.98565" stroke-linecap="square"/>
</svg>
